<?xml version="1.0" encoding="iso-8859-1"?>
<!-- Generator: Adobe Illustrator 28.5.0, SVG Export Plug-In . SVG Version: 9.03 Build 54727)  -->
<svg version="1.1" xmlns="http://www.w3.org/2000/svg" xmlns:xlink="http://www.w3.org/1999/xlink" x="0px" y="0px"
	 viewBox="0 0 159 299" style="enable-background:new 0 0 159 299;" xml:space="preserve">
<pattern  width="34.016" height="34.016" patternUnits="userSpaceOnUse" id="&#x65B0;&#x898F;&#x30D1;&#x30BF;&#x30FC;&#x30F3;" viewBox="6 -40.016 34.016 34.016" style="overflow:visible;">
	<g>
		<rect x="6" y="-40.016" style="fill:none;" width="34.016" height="34.016"/>
		<circle style="fill:#3582A0;" cx="31.512" cy="-6" r="6"/>
		<circle style="fill:#3582A0;" cx="14.504" cy="-6" r="6"/>
		<circle style="fill:#3582A0;" cx="40.016" cy="-23.008" r="6"/>
		<circle style="fill:#3582A0;" cx="23.008" cy="-23.008" r="6"/>
		<circle style="fill:#3582A0;" cx="6" cy="-23.008" r="6"/>
		<circle style="fill:#3582A0;" cx="31.512" cy="-40.016" r="6"/>
		<circle style="fill:#3582A0;" cx="14.504" cy="-40.016" r="6"/>
	</g>
</pattern>
<g id="&#x30EC;&#x30A4;&#x30E4;&#x30FC;_54" style="display:none;">
	<rect x="-7.5" y="-12.5" style="display:inline;fill:#CCCCCC;" width="177" height="327"/>
</g>
<g id="backhair07" style="display:none;">
	<path style="display:inline;fill:#291508;" d="M49.232,118.242c0,0-27.867-2.955-22.645,34.804s2.365,52.72-4.161,60.297
		c-6.527,7.577,39.688-33.05,26.676-60.003S51.942,118.532,49.232,118.242z"/>
</g>
<g id="backhair06" style="display:none;">
	<g style="display:inline;">
		<path style="fill:#291508;" d="M110.875,118.242c0,0,27.867-2.955,22.645,34.804c-5.222,37.759-2.365,52.72,4.161,60.297
			c6.527,7.577-39.688-33.05-26.676-60.003S108.165,118.532,110.875,118.242z"/>
		<path style="fill:#291508;" d="M48.125,118.242c0,0-27.867-2.955-22.645,34.804s2.365,52.72-4.161,60.297
			c-6.527,7.577,39.688-33.05,26.676-60.003S50.835,118.532,48.125,118.242z"/>
	</g>
</g>
<g id="backhair05" style="display:none;">
	<g style="display:inline;">
		<g>
			<path style="fill:#291508;" d="M156.015,28.158c0,0-12.4-2.034-22.058,4.151c-8.195,5.248-13.185,13.411-16.601,7.941
				s-0.634-16.143,8.76-19.236C141.062,16.093,152.6,22.688,156.015,28.158z"/>
			<circle style="fill:#EF6A30;" cx="117.428" cy="33.42" r="5"/>
			<circle style="fill:#EF6A30;" cx="124.428" cy="38.42" r="5"/>
		</g>
		<g>
			<path style="fill:#291508;" d="M2.985,28.158c0,0,12.4-2.034,22.058,4.151c8.195,5.248,13.185,13.411,16.601,7.941
				s0.634-16.143-8.76-19.236C17.938,16.093,6.4,22.688,2.985,28.158z"/>
			<circle style="fill:#EF6A30;" cx="35.459" cy="40.42" r="5"/>
			<circle style="fill:#EF6A30;" cx="40.459" cy="33.42" r="5"/>
		</g>
	</g>
</g>
<g id="backhair04" style="display:none;">
	<path id="backhair01_00000134247149412064619490000007228666528007973786_" style="display:inline;fill:#1E0B0B;" d="
		M122.502,119.42H36.498c-7.149,0-12.998-5.849-12.998-12.998V83.089c0-25.668,21.001-46.668,46.668-46.668h18.663
		c25.668,0,46.668,21.001,46.668,46.668v23.334C135.5,113.571,129.651,119.42,122.502,119.42z"/>
</g>
<g id="backhair03" style="display:none;">
	<path id="backhair01_00000009560826033063779070000018109081570145974939_" style="display:inline;fill:#1E0B0B;" d="M23.5,107.422
		V84.089c0-25.668,21.001-46.668,46.668-46.668h18.663c25.668,0,46.668,21.001,46.668,46.668v23.334
		c-0.001,18.998-27.001,33.998-56.001,33.998C49.932,141.42,23.499,128.42,23.5,107.422z"/>
</g>
<g id="backhair02_00000091705160274194945010000007350443674258547124_" style="display:none;">
	<path id="backhair02_00000144336453210141622390000005409403480350291371_" style="display:inline;fill:#6B0000;" d="M122.502,184
		H36.498c-7.149,0-12.998-5.849-12.998-12.998V81.668C23.5,56.001,44.501,35,70.168,35h18.663c25.668,0,46.668,21.001,46.668,46.668
		v89.334C135.5,178.151,129.651,184,122.502,184z"/>
</g>
<g id="backhair01_00000133519793573206338370000009076586093848075162_" style="display:none;">
	<path id="backhair01" style="display:inline;fill:#1E0B0B;" d="M122.502,184H36.498c-7.149,0-12.998-5.849-12.998-12.998V81.668
		C23.5,56.001,44.501,35,70.168,35h18.663c25.668,0,46.668,21.001,46.668,46.668v89.334C135.5,178.151,129.651,184,122.502,184z"/>
</g>
<g id="lowerbody07" style="display:none;">
	<g id="lowerbody01_00000010304449155119108650000005140558379904342416_" style="display:inline;">
		<path style="fill:#231815;" d="M113.5,193.189c0-7.8-6.382-14.182-14.182-14.182H63.682c-7.8,0-14.182,6.382-14.182,14.182v15.635
			c0,0.921,0.096,1.82,0.265,2.693c-0.172,0.804-0.265,1.636-0.265,2.49v53h28v-44h8v44h28v-53c0-0.854-0.094-1.686-0.265-2.49
			c0.17-0.873,0.265-1.772,0.265-2.693V193.189z"/>
		<path style="fill:#231815;" d="M73.176,288.007H54.17c-4.218,0-7.67-3.452-7.67-7.67v-2.525c0-7.734,6.328-14.062,14.062-14.062
			h6.223c7.734,0,14.062,6.328,14.062,14.062v2.525C80.846,284.555,77.395,288.007,73.176,288.007z"/>
		<path style="fill:#231815;" d="M108.83,287.367H89.824c-4.218,0-7.67-3.452-7.67-7.67v-2.525c0-7.734,6.328-14.062,14.062-14.062
			h6.223c7.734,0,14.062,6.328,14.062,14.062v2.525C116.5,283.916,113.049,287.367,108.83,287.367z"/>
	</g>
</g>
<g id="lowerbody06" style="display:none;">
	<g id="lowerbody03_00000062905674550984867560000014930772456828081042_" style="display:inline;">
		<path style="fill:#FAD6B6;" d="M112.607,194.317c0-8.421-6.382-15.311-14.182-15.311H62.79c-7.8,0-14.182,6.89-14.182,15.311
			v16.879c0,0.994,0.096,1.964,0.265,2.907c-0.172,0.868-0.265,1.767-0.265,2.688v57.216h28v-47.5h8v47.5h28v-57.216
			c0-0.921-0.094-1.82-0.265-2.688c0.17-0.942,0.265-1.913,0.265-2.907V194.317z"/>
		<path style="fill:#231815;" d="M72.283,288.007H53.277c-4.218,0-7.67-3.452-7.67-7.67v-2.525c0-7.734,6.328-14.062,14.062-14.062
			h6.223c7.734,0,14.062,6.328,14.062,14.062v2.525C79.953,284.555,76.502,288.007,72.283,288.007z"/>
		<path style="fill:#231815;" d="M107.937,287.367H88.931c-4.218,0-7.67-3.452-7.67-7.67v-2.525c0-7.734,6.328-14.062,14.062-14.062
			h6.223c7.734,0,14.062,6.328,14.062,14.062v2.525C115.607,283.916,112.156,287.367,107.937,287.367z"/>
	</g>
	<path style="display:inline;fill:#0E2E48;" d="M116.607,245.007h-72l4-51.627c0-13.461,10.912-24.373,24.373-24.373h17.253
		c13.461,0,24.373,10.912,24.373,24.373L116.607,245.007z"/>
</g>
<g id="lowerbody05" style="display:none;">
	<g id="lowerbody03_00000126323000766349666460000002594261399494553783_" style="display:inline;">
		<path style="fill:#FAD6B6;" d="M112.607,209.789c0-7.03-6.382-12.782-14.182-12.782H62.79c-7.8,0-14.182,5.752-14.182,12.782
			v14.091c0,0.83,0.096,1.64,0.265,2.427c-0.172,0.725-0.265,1.475-0.265,2.244v47.767h28v-39.656h8v39.656h28v-47.767
			c0-0.769-0.094-1.519-0.265-2.244c0.17-0.787,0.265-1.597,0.265-2.427V209.789z"/>
		<rect x="48.526" y="265.465" style="fill:#EAEAEA;" width="28" height="12.523"/>
		<rect x="84.526" y="265.465" style="fill:#EAEAEA;" width="28" height="12.523"/>
		<path style="fill:#231815;" d="M72.945,288.007h-20.33c-3.854,0-7.008-3.154-7.008-7.008v-0.395
			c0-7.066,5.782-12.848,12.848-12.848h8.65c7.067,0,12.848,5.782,12.848,12.848v0.395C79.953,284.853,76.8,288.007,72.945,288.007z
			"/>
		<path style="fill:#231815;" d="M108.599,287.473h-20.33c-3.854,0-7.008-3.154-7.008-7.008v-0.395
			c0-7.066,5.782-12.848,12.848-12.848h8.65c7.067,0,12.848,5.782,12.848,12.848v0.395
			C115.607,284.319,112.454,287.473,108.599,287.473z"/>
	</g>
	<path style="display:inline;fill:#231815;" d="M119.607,246.007h-78l1.185-5.305c1.761-7.886,2.652-15.987,2.91-24.133
		c0.326-10.27,4.029-22.562,26.643-22.562h18.691c26.304,0,25.871,17.34,26.329,28.038c0.203,4.736,0.623,9.456,1.148,14.158
		L119.607,246.007z"/>
</g>
<g id="lowerbody04" style="display:none;">
	<g id="lowerbody03_00000048474382322303576500000018104486954406546366_" style="display:inline;">
		<path style="fill:#FAD6B6;" d="M112.607,194.317c0-8.421-6.382-15.311-14.182-15.311H62.79c-7.8,0-14.182,6.89-14.182,15.311
			v16.879c0,0.994,0.096,1.964,0.265,2.907c-0.172,0.868-0.265,1.767-0.265,2.688v57.216h28v-47.5h8v47.5h28v-57.216
			c0-0.921-0.094-1.82-0.265-2.688c0.17-0.942,0.265-1.913,0.265-2.907V194.317z"/>
		<path style="fill:#511D08;" d="M72.283,288.007H53.277c-4.218,0-7.67-3.452-7.67-7.67v-2.525c0-7.734,6.328-14.062,14.062-14.062
			h6.223c7.734,0,14.062,6.328,14.062,14.062v2.525C79.953,284.555,76.502,288.007,72.283,288.007z"/>
		<path style="fill:#511D08;" d="M107.937,287.367H88.931c-4.218,0-7.67-3.452-7.67-7.67v-2.525c0-7.734,6.328-14.062,14.062-14.062
			h6.223c7.734,0,14.062,6.328,14.062,14.062v2.525C115.607,283.916,112.156,287.367,107.937,287.367z"/>
	</g>
	<path style="display:inline;fill:#EA5C5C;" d="M116.607,245.007h-72l4-51.627c0-13.461,10.912-24.373,24.373-24.373h17.253
		c13.461,0,24.373,10.912,24.373,24.373L116.607,245.007z"/>
</g>
<g id="lowerbody03_00000080906133274041294380000001331612944419812515_" style="display:none;">
	<g id="lowerbody03_00000101072030877067064290000006991969734278838171_" style="display:inline;">
		<path style="fill:#FAD6B6;" d="M113.5,194.311c0-8.421-6.382-15.311-14.182-15.311H63.682c-7.8,0-14.182,6.89-14.182,15.311
			v16.879c0,0.994,0.096,1.964,0.265,2.907c-0.172,0.868-0.265,1.767-0.265,2.688V274h28v-47.5h8V274h28v-57.216
			c0-0.921-0.094-1.82-0.265-2.688c0.17-0.942,0.265-1.913,0.265-2.907V194.311z"/>
		<path style="fill:#64CC64;" d="M113.5,194.311c0-8.421-6.382-15.311-14.182-15.311H63.682c-7.8,0-14.182,6.89-14.182,15.311
			v16.879c0,0.994,0.096,1.964,0.265,2.907c-0.172,0.868-0.265,1.767-0.265,2.688V236h28v-9.5h8v9.5h28v-19.216
			c0-0.921-0.094-1.82-0.265-2.688c0.17-0.942,0.265-1.913,0.265-2.907V194.311z"/>
		<path style="fill:#7C15E8;" d="M73.176,288H54.17c-4.218,0-7.67-3.451-7.67-7.67v-2.525c0-7.734,6.328-14.062,14.062-14.062h6.223
			c7.734,0,14.062,6.328,14.062,14.062v2.525C80.846,284.549,77.395,288,73.176,288z"/>
		<path style="fill:#7C15E8;" d="M108.83,287.361H89.824c-4.218,0-7.67-3.451-7.67-7.67v-2.525c0-7.734,6.328-14.062,14.062-14.062
			h6.223c7.734,0,14.062,6.328,14.062,14.062v2.525C116.5,283.909,113.049,287.361,108.83,287.361z"/>
	</g>
</g>
<g id="lowerbody02_00000113332071391788541320000005002513029909356194_" style="display:none;">
	<g id="lowerbody02_00000010270545122532536600000012435215430312152982_" style="display:inline;">
		<path style="fill:#FAD6B6;" d="M113.5,194.311c0-8.421-6.382-15.311-14.182-15.311H63.682c-7.8,0-14.182,6.89-14.182,15.311
			v16.879c0,0.994,0.096,1.964,0.265,2.907c-0.172,0.868-0.265,1.767-0.265,2.688V274h28v-47.5h8V274h28v-57.216
			c0-0.921-0.094-1.82-0.265-2.688c0.17-0.942,0.265-1.913,0.265-2.907V194.311z"/>
		<path style="fill:#DD3812;" d="M73.176,288H54.17c-4.218,0-7.67-3.451-7.67-7.67v-2.525c0-7.734,6.328-14.062,14.062-14.062h6.223
			c7.734,0,14.062,6.328,14.062,14.062v2.525C80.846,284.549,77.395,288,73.176,288z"/>
		<path style="fill:#DD3812;" d="M108.83,287.361H89.824c-4.218,0-7.67-3.451-7.67-7.67v-2.525c0-7.734,6.328-14.062,14.062-14.062
			h6.223c7.734,0,14.062,6.328,14.062,14.062v2.525C116.5,283.909,113.049,287.361,108.83,287.361z"/>
	</g>
</g>
<g id="lowerbody01_00000158715234407573086630000000875455128698761392_" style="display:none;">
	<g id="lowerbody01_00000160166183967733883730000006182891016414256058_" style="display:inline;">
		<path style="fill:#0E2E48;" d="M113.5,193.182c0-7.8-6.382-14.182-14.182-14.182H63.682c-7.8,0-14.182,6.382-14.182,14.182v15.635
			c0,0.921,0.096,1.82,0.265,2.693c-0.172,0.804-0.265,1.636-0.265,2.49v53h28v-44h8v44h28v-53c0-0.854-0.094-1.686-0.265-2.49
			c0.17-0.873,0.265-1.772,0.265-2.693V193.182z"/>
		<path style="fill:#E8E8E8;" d="M73.176,288H54.17c-4.218,0-7.67-3.451-7.67-7.67v-2.525c0-7.734,6.328-14.062,14.062-14.062h6.223
			c7.734,0,14.062,6.328,14.062,14.062v2.525C80.846,284.549,77.395,288,73.176,288z"/>
		<path style="fill:#E8E8E8;" d="M108.83,287.361H89.824c-4.218,0-7.67-3.451-7.67-7.67v-2.525c0-7.734,6.328-14.062,14.062-14.062
			h6.223c7.734,0,14.062,6.328,14.062,14.062v2.525C116.5,283.909,113.049,287.361,108.83,287.361z"/>
	</g>
</g>
<g id="upperbody05" style="display:none;">
	<g id="upperbody02_00000133501047114695555930000012461887803115494308_" style="display:inline;">
		<g id="arm02_00000029757784697775928750000005267652648580515491_">
			<path style="fill:#FAD6B6;" d="M119.986,189.273c0.003-0.091,0.014-0.181,0.014-0.273l0-27c0-4.4-3.6-8-8-8s-8,3.6-8,8l0,27
				c0,0.092,0.011,0.182,0.014,0.273C100.987,191.457,99,195.004,99,199v2c0,6.6,5.4,12,12,12h2c6.6,0,12-5.4,12-12v-2
				C125,195.004,123.013,191.457,119.986,189.273z"/>
			<path id="arm01_00000092418627397023211490000008200808667366199736_" style="fill:#FAD6B6;" d="M54.986,188.273
				C54.989,188.182,55,188.092,55,188l0-27c0-4.4-3.6-8-8-8s-8,3.6-8,8l0,27c0,0.092,0.011,0.182,0.014,0.273
				C35.987,190.457,34,194.004,34,198v2c0,6.6,5.4,12,12,12h2c6.6,0,12-5.4,12-12v-2C60,194.004,58.013,190.457,54.986,188.273z"/>
		</g>
		<g>
			<path style="fill:#036EB7;" d="M122.5,149.331c0-6.943-6.396-12.571-14.286-12.571h-1.962c-1.927-1.108-4.253-1.76-6.752-1.76
				h-40c-2.499,0-4.825,0.652-6.752,1.76h-0.962c-7.89,0-14.286,5.628-14.286,12.571v13.829h6.795L36.5,245h86l-7.795-81.84h7.795
				V149.331z"/>
			
				<pattern  id="SVGID_1_" xlink:href="#&#x8B41;&#xFF70;&#x9695;&#x4E0A;&#x30F1;&#x7E67;&#xFF7F;&#x7E5D;&#xFF7C;&#x7E5D;&#xFF73;" patternTransform="matrix(1 0 0 1 2.5 0)">
			</pattern>
			<path style="fill:url(#SVGID_1_);" d="M122.5,149.331c0-6.943-6.396-12.571-14.286-12.571h-1.962
				c-1.927-1.108-4.253-1.76-6.752-1.76h-40c-2.499,0-4.825,0.652-6.752,1.76h-0.962c-7.89,0-14.286,5.628-14.286,12.571v13.829
				h6.795L36.5,245h86l-7.795-81.84h7.795V149.331z"/>
		</g>
		<path style="fill:#FAD6B6;" d="M79.5,144L79.5,144c-4.4,0-8-3.6-8-8v-5c0-4.4,3.6-8,8-8h0c4.4,0,8,3.6,8,8v5
			C87.5,140.4,83.9,144,79.5,144z"/>
	</g>
</g>
<g id="upperbody04" style="display:none;">
	<g style="display:inline;">
		<g id="upperbody01_00000068660167282316066510000012753356347450504591_">
			<g>
				<g id="arm02_00000009575063382669807290000012031335944804355765_">
					<path style="fill:#FAD6B6;" d="M122.802,190.612c-0.006-0.091-0.005-0.181-0.014-0.273l-2.784-26.856
						c-0.454-4.377-4.406-7.586-8.782-7.132c-4.377,0.454-7.586,4.406-7.132,8.782l2.784,26.856c0.009,0.092,0.029,0.18,0.042,0.27
						c-2.786,2.485-4.396,6.217-3.984,10.192l0.206,1.989c0.681,6.565,6.609,11.379,13.173,10.699l1.989-0.206
						c6.565-0.681,11.379-6.609,10.699-13.173l-0.206-1.989C128.38,195.795,126.038,192.472,122.802,190.612z"/>
					<path id="arm01_00000181074806758732955780000007289682327441525660_" style="fill:#FAD6B6;" d="M52.408,191.48
						c0.015-0.09,0.038-0.177,0.05-0.269l3.603-26.759c0.587-4.361-2.5-8.409-6.861-8.996s-8.409,2.5-8.996,6.861l-3.603,26.759
						c-0.012,0.091-0.014,0.181-0.023,0.272c-3.291,1.761-5.734,5.011-6.267,8.971l-0.267,1.982
						c-0.881,6.541,3.75,12.613,10.291,13.494l1.982,0.267c6.541,0.881,12.613-3.75,13.494-10.291l0.267-1.982
						C56.612,197.829,55.116,194.049,52.408,191.48z"/>
				</g>
				<path style="fill:#EAEAEA;" d="M58.336,189.154l-22.9-2.144l3.018-32.233c0.959-10.242,10.039-17.768,20.282-16.809l4.355,0.408
					L58.336,189.154z"/>
				<path style="fill:#EAEAEA;" d="M101.96,189.538l22.9-2.144l-3.018-32.233c-0.959-10.242-10.039-17.768-20.282-16.809
					l-4.355,0.408L101.96,189.538z"/>
			</g>
			<path style="fill:#EAEAEA;" d="M122.5,215.193h-86l11-68.837c0-6.14,5.4-11.163,12-11.163h40c6.6,0,12,5.023,12,11.163
				L122.5,215.193z"/>
			<path style="fill:#FAD6B6;" d="M79.5,146.193L79.5,146.193c-4.4,0-8-3.6-8-8v-5c0-4.4,3.6-8,8-8h0c4.4,0,8,3.6,8,8v5
				C87.5,142.593,83.9,146.193,79.5,146.193z"/>
		</g>
		<path style="fill:#0E2E48;" d="M82.138,156.193h-5.276c-1.299,0-2.362-1.063-2.362-2.362v-5.276c0-1.299,1.063-2.362,2.362-2.362
			h5.276c1.299,0,2.362,1.063,2.362,2.362v5.276C84.5,155.13,83.437,156.193,82.138,156.193z"/>
		<polygon style="fill:#FFFFFF;" points="89.519,150.901 87.519,134.901 79.38,144.849 71.481,135.193 69.481,151.193 
			79.821,146.493 		"/>
		<path style="fill:#0E2E48;" d="M79.5,191.193L79.5,191.193c0,0-5-3.83-5-3.83v-28.34c0-2.106,2.25-3.83,5-3.83h0
			c2.75,0,5,1.723,5,3.83v28.34C84.5,187.363,79.5,191.193,79.5,191.193z"/>
		<rect x="93" y="155.193" style="fill:#0E2E48;" width="13" height="1"/>
	</g>
</g>
<g id="upperbody03_00000016773273868081477920000010947903278798228129_" style="display:none;">
	<g id="upperbody03_00000038393020434469123790000007587230781923820161_" style="display:inline;">
		<g id="arm01_00000148659737085755929110000016231649719896360883_">
			<path style="fill:#FAD6B6;" d="M134.706,188.084c-0.025-0.088-0.042-0.177-0.069-0.264l-8.174-25.733
				c-1.332-4.194-5.853-6.535-10.046-5.203s-6.535,5.853-5.203,10.046l8.174,25.733c0.028,0.088,0.065,0.17,0.096,0.256
				c-2.224,2.998-3.044,6.98-1.834,10.788l0.605,1.906c1.998,6.29,8.779,9.802,15.07,7.804l1.906-0.605
				c6.29-1.998,9.802-8.779,7.804-15.07l-0.605-1.906C141.22,192.028,138.252,189.25,134.706,188.084z"/>
			<path id="arm01_00000127757109958570027530000015884919799793769645_" style="fill:#FAD6B6;" d="M42.866,192.163
				c0.034-0.085,0.075-0.165,0.107-0.252l9.268-25.36c1.51-4.133-0.635-8.75-4.768-10.26c-4.133-1.51-8.75,0.635-10.26,4.768
				l-9.268,25.36c-0.032,0.087-0.052,0.174-0.081,0.261c-3.593,1.012-6.676,3.662-8.048,7.415l-0.686,1.878
				c-2.265,6.199,0.953,13.124,7.152,15.39l1.878,0.686c6.199,2.265,13.124-0.953,15.39-7.152l0.686-1.878
				C45.609,199.267,44.96,195.254,42.866,192.163z"/>
		</g>
		<path style="fill:#FFFFFF;" d="M109.061,136.5h-1.962c-1.927-1.259-4.253-2-6.752-2h-40c-2.499,0-4.825,0.741-6.752,2h-0.962
			c-7.89,0-20.286,30-20.286,30h12.795l2.205,39h68l0.205-39h13.795C129.347,166.5,116.951,136.5,109.061,136.5z"/>
		<path style="fill:#FAD6B6;" d="M81.347,145.5L81.347,145.5c-4.4,0-8-3.6-8-8v-5c0-4.4,3.6-8,8-8h0c4.4,0,8,3.6,8,8v5
			C89.347,141.9,85.747,145.5,81.347,145.5z"/>
	</g>
</g>
<g id="upperbody02_00000178180472253448475780000010453071090977712033_">
	<g id="upperbody02_00000070825964421687692660000007679083656182759580_">
		<g id="arm02_00000136408025473384692750000003477126053433605305_">
			<path style="fill:#FAD6B6;" d="M121.986,189.273c0.003-0.091,0.014-0.181,0.014-0.273l0-27c0-4.4-3.6-8-8-8s-8,3.6-8,8l0,27
				c0,0.092,0.011,0.182,0.014,0.273C102.987,191.457,101,195.004,101,199v2c0,6.6,5.4,12,12,12h2c6.6,0,12-5.4,12-12v-2
				C127,195.004,125.013,191.457,121.986,189.273z"/>
			<path id="arm01_00000160909235125311714220000003610201320614044290_" style="fill:#FAD6B6;" d="M52.986,188.273
				C52.989,188.182,53,188.092,53,188l0-27c0-4.4-3.6-8-8-8s-8,3.6-8,8l0,27c0,0.092,0.011,0.182,0.014,0.273
				C33.987,190.457,32,194.004,32,198v2c0,6.6,5.4,12,12,12h2c6.6,0,12-5.4,12-12v-2C58,194.004,56.013,190.457,52.986,188.273z"/>
		</g>
		<path style="fill:#F3F757;" d="M122,149.286c0-7.89-6.396-14.286-14.286-14.286h-1.962c-1.927-1.259-4.253-2-6.752-2H59
			c-2.499,0-4.825,0.741-6.752,2h-0.962C43.396,135,37,141.396,37,149.286V165h6.795L36,258h86l-7.795-93H122V149.286z"/>
		<path style="fill:#FAD6B6;" d="M80,144L80,144c-4.4,0-8-3.6-8-8v-5c0-4.4,3.6-8,8-8h0c4.4,0,8,3.6,8,8v5C88,140.4,84.4,144,80,144
			z"/>
	</g>
</g>
<g id="upperbody01_00000023243934539975913800000002121918215218859947_" style="display:none;">
	<g id="upperbody01_00000062152845570903230210000012727150058124856498_" style="display:inline;">
		<g id="arm02_00000011713517293463107690000012046013780505208479_">
			<path style="fill:#FAD6B6;" d="M119.986,189.273c0.003-0.091,0.014-0.181,0.014-0.273l0-27c0-4.4-3.6-8-8-8s-8,3.6-8,8l0,27
				c0,0.092,0.011,0.182,0.014,0.273C100.987,191.457,99,195.004,99,199v2c0,6.6,5.4,12,12,12h2c6.6,0,12-5.4,12-12v-2
				C125,195.004,123.013,191.457,119.986,189.273z"/>
			<path id="arm01_00000044140194432797678570000017612510524855794360_" style="fill:#FAD6B6;" d="M54.986,188.273
				C54.989,188.182,55,188.092,55,188l0-27c0-4.4-3.6-8-8-8s-8,3.6-8,8l0,27c0,0.092,0.011,0.182,0.014,0.273
				C35.987,190.457,34,194.004,34,198v2c0,6.6,5.4,12,12,12h2c6.6,0,12-5.4,12-12v-2C60,194.004,58.013,190.457,54.986,188.273z"/>
		</g>
		<path style="fill:#3EB69D;" d="M60.5,165h-23v-15.714c0-7.89,6.396-14.286,14.286-14.286H60.5V165z"/>
		<path style="fill:#3EB69D;" d="M99.5,165h23v-15.714c0-7.89-6.396-14.286-14.286-14.286H99.5V165z"/>
		<path style="fill:#3EB69D;" d="M122.5,215h-86l11-70.558c0-6.293,5.4-11.442,12-11.442h40c6.6,0,12,5.149,12,11.442L122.5,215z"/>
		<path style="fill:#FAD6B6;" d="M80.5,144L80.5,144c-4.4,0-8-3.6-8-8v-5c0-4.4,3.6-8,8-8h0c4.4,0,8,3.6,8,8v5
			C88.5,140.4,84.9,144,80.5,144z"/>
	</g>
</g>
<g id="ear03" style="display:none;">
	<g id="ear01_00000055666325341336400650000011350508093789861004_" style="display:inline;">
		<g>
			<circle style="fill:#FAD6B6;" cx="35" cy="91.5" r="16.5"/>
			<circle style="fill:#F1B588;" cx="33.5" cy="91" r="9"/>
		</g>
		<g>
			<circle style="fill:#FAD6B6;" cx="124" cy="91.5" r="16.5"/>
			<circle id="ear01_00000132077713040879513200000005264335066940253606_" style="fill:#F1B588;" cx="126.5" cy="91" r="9"/>
		</g>
	</g>
</g>
<g id="ear02" style="display:none;">
	<g id="ear01_00000134967060226581460600000008135990774399104921_" style="display:inline;">
		<ellipse style="fill:#FAD6B6;" cx="33.5" cy="97" rx="16.5" ry="22"/>
		<ellipse style="fill:#FAD6B6;" cx="125.5" cy="97" rx="16.5" ry="22"/>
		<ellipse style="fill:#F1B588;" cx="32" cy="98" rx="9" ry="13"/>
		
			<ellipse id="ear01_00000036229153068940956200000014987856384542078374_" style="fill:#F1B588;" cx="126" cy="98" rx="9" ry="13"/>
	</g>
</g>
<g id="ear01_00000095311245772317497780000006129049952885214622_" style="display:none;">
	<g id="ear01_00000069390929797868767430000012970044432734854582_" style="display:inline;">
		<circle style="fill:#FAD6B6;" cx="29.5" cy="91.5" r="16.5"/>
		<circle style="fill:#FAD6B6;" cx="129.5" cy="91.5" r="16.5"/>
		<circle style="fill:#F1B588;" cx="28" cy="91" r="9"/>
		<circle id="ear01" style="fill:#F1B588;" cx="128" cy="91" r="9"/>
	</g>
</g>
<g id="face04" style="display:none;">
	<path style="display:inline;fill:#FAD6B6;" d="M118.037,136H44.07c-6.884,0-12.516-5.632-12.516-12.516V57.516
		C31.554,50.632,37.186,45,44.07,45h73.967c6.884,0,12.516,5.632,12.516,12.516v65.967C130.554,130.368,124.921,136,118.037,136z"/>
	<g style="display:inline;">
		<path style="fill:#F1B588;" d="M94.554,115.253l0.374,0.499c1.725,2.3,2.873,4.982,3.345,7.818l0.281,1.683"/>
		<path style="fill:#F1B588;" d="M67.554,115.253l-0.374,0.499c-1.725,2.3-2.873,4.982-3.345,7.818l-0.281,1.683"/>
	</g>
</g>
<g id="face03" style="display:none;">
	<path id="face01_00000168799593959348651230000000287643117463503753_" style="display:inline;fill:#FAD6B6;" d="M130.554,89
		c0,27.614-22.386,46-50,46s-50-18.386-50-46s22.386-50,50-50S130.554,61.386,130.554,89z"/>
	<g style="display:inline;">
		<path style="fill:#F1B588;" d="M94.054,115.253l0.374,0.499c1.725,2.3,2.873,4.982,3.345,7.818l0.281,1.683"/>
		<path style="fill:#F1B588;" d="M67.054,115.253l-0.374,0.499c-1.725,2.3-2.873,4.982-3.345,7.818l-0.281,1.683"/>
	</g>
</g>
<g id="face02" style="display:none;">
	<path style="display:inline;fill:#FAD6B6;" d="M116.484,136H42.516C35.632,136,30,130.368,30,123.484V57.516
		C30,50.632,35.632,45,42.516,45h73.967C123.368,45,129,50.632,129,57.516v65.967C129,130.368,123.368,136,116.484,136z"/>
</g>
<g id="face01_00000072282113280908566730000007853014941719626155_" style="display:none;">
	<path id="face01_00000097498456221108129990000002056764626615859359_" style="display:inline;fill:#FAD6B6;" d="M129.5,89
		c0,27.614-22.386,46-50,46s-50-18.386-50-46s22.386-50,50-50S129.5,61.386,129.5,89z"/>
</g>
<g id="nose01_00000017500802426429038320000007996396924284214927_" style="display:none;">
	
		<rect id="nose01_00000181778503276400895800000007393993654071366281_" x="76" y="89" style="display:inline;fill:#F1B588;" width="7" height="19"/>
</g>
<g id="nose02_00000133505251444732357130000002886404874291366839_" style="display:none;">
	
		<circle id="nose02_00000173863237634693893910000009840102999010209936_" style="display:inline;fill:#F1B588;" cx="79.5" cy="101.5" r="4.5"/>
</g>
<g id="mouth04" style="display:none;">
	<path id="mouth01_00000029047476911022433360000010931935421587660441_" style="display:inline;fill:#BC6868;" d="M89,120H70
		c-1.381,0-2.5-1.119-2.5-2.5l0,0c0-1.381,1.119-2.5,2.5-2.5h19c1.381,0,2.5,1.119,2.5,2.5l0,0C91.5,118.881,90.381,120,89,120z"/>
</g>
<g id="mouth03" style="display:none;">
	<path id="mouth01_00000074415134856374229490000016442007910476851089_" style="display:inline;fill:#DF775A;" d="M89,123.006
		l-9.5-4l-9.5,4c-1.381,0-2.5-1.119-2.5-2.5l0,0c0-1.381,1.119-2.5,2.5-2.5l9.5-4l9.5,4c1.381,0,2.5,1.119,2.5,2.5l0,0
		C91.5,121.887,90.381,123.006,89,123.006z"/>
</g>
<g id="mouth02" style="display:none;">
	<path style="display:inline;fill:#CE6363;" d="M92.5,117c0,7.18-5.82,13-13,13s-13-5.82-13-13S92.5,109.82,92.5,117z"/>
</g>
<g id="mouth01_00000027571031880612866910000017246883789237389231_" style="display:none;">
	<path id="mouth01" style="display:inline;fill:#DF775A;" d="M89,120H70c-1.381,0-2.5-1.119-2.5-2.5l0,0c0-1.381,1.119-2.5,2.5-2.5
		h19c1.381,0,2.5,1.119,2.5,2.5l0,0C91.5,118.881,90.381,120,89,120z"/>
</g>
<g id="eyebrows04" style="display:none;">
	<g id="eyebrows01_00000168107851790361033710000010854031989431619476_" style="display:inline;">
		<path style="fill:#473D3D;" d="M67,85.253H57c-1.375,0-2.5-1.125-2.5-2.5v0c0-1.375,1.125-2.5,2.5-2.5h10
			c1.375,0,2.5,1.125,2.5,2.5v0C69.5,84.128,68.375,85.253,67,85.253z"/>
		<path style="fill:#473D3D;" d="M102,85.253H92c-1.375,0-2.5-1.125-2.5-2.5v0c0-1.375,1.125-2.5,2.5-2.5h10
			c1.375,0,2.5,1.125,2.5,2.5v0C104.5,84.128,103.375,85.253,102,85.253z"/>
	</g>
</g>
<g id="eyebrows03_00000055690336929398627190000017758204369883068823_" style="display:none;">
	<g id="eyebrows03" style="display:inline;">
		<path style="fill:#6B0000;" d="M90.83,82.065l11.818-2.084c0.812-0.143,1.594,0.404,1.738,1.217l0,0
			c0.143,0.812-0.404,1.594-1.217,1.738l-11.818,2.084c-0.812,0.143-1.594-0.404-1.738-1.217l0,0
			C89.47,82.99,90.018,82.208,90.83,82.065z"/>
		<path style="fill:#6B0000;" d="M56.352,79.981l11.818,2.084c0.812,0.143,1.36,0.925,1.217,1.738l0,0
			c-0.143,0.812-0.925,1.36-1.738,1.217l-11.818-2.084c-0.812-0.143-1.36-0.925-1.217-1.738l0,0
			C54.758,80.385,55.539,79.838,56.352,79.981z"/>
	</g>
</g>
<g id="eyebrows02_00000057855620701457422460000015272110602656285082_" style="display:none;">
	<g id="eyebrows02_00000113347491568530019480000013869403820608884922_" style="display:inline;">
		<path style="fill:#482A2A;" d="M68.17,82.935l-11.818,2.084c-0.812,0.143-1.594-0.404-1.738-1.217l0,0
			c-0.143-0.812,0.404-1.594,1.217-1.738l11.818-2.084c0.812-0.143,1.594,0.404,1.738,1.217l0,0
			C69.53,82.01,68.982,82.792,68.17,82.935z"/>
		<path style="fill:#482A2A;" d="M102.648,85.019L90.83,82.935c-0.812-0.143-1.36-0.925-1.217-1.738l0,0
			c0.143-0.812,0.925-1.36,1.738-1.217l11.818,2.084c0.812,0.143,1.36,0.925,1.217,1.738l0,0
			C104.242,84.615,103.461,85.162,102.648,85.019z"/>
	</g>
</g>
<g id="eyebrows01_00000150781887198110670220000003494559981411417986_" style="display:none;">
	<g id="eyebrows01" style="display:inline;">
		<path style="fill:#482A2A;" d="M67,84H57c-1.375,0-2.5-1.125-2.5-2.5l0,0c0-1.375,1.125-2.5,2.5-2.5h10c1.375,0,2.5,1.125,2.5,2.5
			l0,0C69.5,82.875,68.375,84,67,84z"/>
		<path style="fill:#482A2A;" d="M102,84H92c-1.375,0-2.5-1.125-2.5-2.5l0,0c0-1.375,1.125-2.5,2.5-2.5h10
			c1.375,0,2.5,1.125,2.5,2.5l0,0C104.5,82.875,103.375,84,102,84z"/>
	</g>
</g>
<g id="eye06" style="display:none;">
	<g id="eye02_00000054261043647889501830000007757798729002703022_" style="display:inline;">
		<ellipse style="fill:#291508;" cx="63.054" cy="99" rx="4.5" ry="9"/>
		<ellipse style="fill:#291508;" cx="98.054" cy="99" rx="4.5" ry="9"/>
		<path style="fill:#291508;" d="M61.179,97.388L61.179,97.388c-0.699,0.438-1.629,0.225-2.068-0.473l-2.657-4.235
			c-0.438-0.699-0.225-1.629,0.473-2.068h0c0.699-0.438,1.629-0.225,2.068,0.473l2.657,4.235
			C62.091,96.019,61.878,96.95,61.179,97.388z"/>
		<path style="fill:#291508;" d="M99.928,97.388L99.928,97.388c0.699,0.438,1.629,0.225,2.068-0.473l2.657-4.235
			c0.438-0.699,0.225-1.629-0.473-2.068l0,0c-0.699-0.438-1.629-0.225-2.068,0.473l-2.657,4.235
			C99.016,96.019,99.229,96.95,99.928,97.388z"/>
	</g>
	<g style="display:inline;">
		<g>
			<path style="fill:#F1B588;" d="M55.881,100.477l-0.349,0.038c-1.611,0.174-3.156,0.733-4.505,1.63l-0.801,0.532"/>
			<path style="fill:#F1B588;" d="M56.083,97.417l-0.344-0.072c-1.586-0.33-3.228-0.275-4.788,0.162l-0.926,0.259"/>
		</g>
		<g>
			<path style="fill:#F1B588;" d="M105.226,100.477l0.349,0.038c1.611,0.174,3.156,0.733,4.505,1.63l0.801,0.532"/>
			<path style="fill:#F1B588;" d="M105.025,97.417l0.344-0.072c1.586-0.33,3.228-0.275,4.788,0.162l0.926,0.259"/>
		</g>
	</g>
</g>
<g id="eye05" style="display:none;">
	<g id="eye01_00000179624925067999858040000007085146723219951004_" style="display:inline;">
		<ellipse style="fill:#291508;" cx="63.054" cy="99" rx="4.5" ry="9"/>
		<ellipse style="fill:#291508;" cx="98.054" cy="99" rx="4.5" ry="9"/>
	</g>
	<g style="display:inline;">
		<g>
			<path style="fill:#F1B588;" d="M55.881,100.477l-0.349,0.038c-1.611,0.174-3.156,0.733-4.505,1.63l-0.801,0.532"/>
			<path style="fill:#F1B588;" d="M56.083,97.417l-0.344-0.072c-1.586-0.33-3.228-0.275-4.788,0.162l-0.926,0.259"/>
		</g>
		<g>
			<path style="fill:#F1B588;" d="M105.226,100.477l0.349,0.038c1.611,0.174,3.156,0.733,4.505,1.63l0.801,0.532"/>
			<path style="fill:#F1B588;" d="M105.025,97.417l0.344-0.072c1.586-0.33,3.228-0.275,4.788,0.162l0.926,0.259"/>
		</g>
	</g>
</g>
<g id="eye04" style="display:none;">
	<g id="eye01_00000054979528406828701340000000336829495793965481_" style="display:inline;">
		<path style="fill:#291508;" d="M66.5,99c0,4.971-2.015,9-4.5,9s-4.5-4.029-4.5-9s2.015-5,4.5-5S66.5,94.029,66.5,99z"/>
		<path style="fill:#291508;" d="M101.5,99c0,4.971-2.015,9-4.5,9s-4.5-4.029-4.5-9s2.015-5,4.5-5S101.5,94.029,101.5,99z"/>
	</g>
</g>
<g id="eye01_00000108294186949487232580000006296520591964909498_" style="display:none;">
	<g id="eye01_00000152248481581396751020000006560304149901158328_" style="display:inline;">
		<ellipse style="fill:#291508;" cx="62" cy="99" rx="4.5" ry="9"/>
		<ellipse style="fill:#291508;" cx="97" cy="99" rx="4.5" ry="9"/>
	</g>
</g>
<g id="eye02_00000096774696657704013440000016091965490526829224_" style="display:none;">
	<g id="eye02_00000023982838716890144940000009024180201662245549_" style="display:inline;">
		<ellipse style="fill:#291508;" cx="62" cy="99" rx="4.5" ry="9"/>
		<ellipse style="fill:#291508;" cx="97" cy="99" rx="4.5" ry="9"/>
		<path style="fill:#291508;" d="M60.126,97.388L60.126,97.388c-0.699,0.438-1.629,0.225-2.068-0.473l-2.657-4.235
			c-0.438-0.699-0.225-1.629,0.473-2.068l0,0c0.699-0.438,1.629-0.225,2.068,0.473l2.657,4.235
			C61.038,96.019,60.825,96.95,60.126,97.388z"/>
		<path style="fill:#291508;" d="M98.874,97.388L98.874,97.388c0.699,0.438,1.629,0.225,2.068-0.473l2.657-4.235
			c0.438-0.699,0.225-1.629-0.473-2.068l0,0c-0.699-0.438-1.629-0.225-2.068,0.473l-2.657,4.235
			C97.962,96.019,98.175,96.95,98.874,97.388z"/>
	</g>
</g>
<g id="eye03_00000005232393638870895290000002715225034148531843_" style="display:none;">
	<g style="display:inline;">
		<g id="eye03_00000078043846617254553790000014463422885557800345_">
			<path style="fill:#291508;" d="M104,99c0,4.971-2.015-2-4.5-2s-4.5,6.971-4.5,2s2.015-9,4.5-9S104,94.029,104,99z"/>
		</g>
		<g id="eye03_00000159464561102573356950000017761065272095999679_">
			<path style="fill:#291508;" d="M64,99c0,4.971-2.015-2-4.5-2s-4.5,6.971-4.5,2s2.015-9,4.5-9S64,94.029,64,99z"/>
		</g>
	</g>
</g>
<g id="other01" style="display:none;">
	<g style="display:inline;">
		<circle style="fill:none;stroke:#231815;stroke-miterlimit:10;" cx="99.5" cy="98.753" r="14.5"/>
		<circle style="fill:none;stroke:#231815;stroke-miterlimit:10;" cx="59.5" cy="98.753" r="14.5"/>
		<path style="fill:#231815;" d="M84.5,98.253l-1.188-0.238c-2.516-0.503-5.107-0.503-7.624,0L74.5,98.253v-2l1.188-0.238
			c2.516-0.503,5.107-0.503,7.624,0l1.188,0.238V98.253z"/>
		<polygon style="display:none;fill:#291508;" points="71.045,91.638 86.789,73.669 88.289,76.253 86.605,77.351 86.789,76.253 
			70.711,94.753 70.711,92.253 		"/>
		<polygon style="display:none;fill:#291508;" points="87.955,91.638 72.211,73.669 70.711,76.253 72.395,77.351 72.211,76.253 
			88.289,94.753 88.289,92.253 		"/>
	</g>
</g>
<g id="flonthair08" style="display:none;">
	<path style="display:inline;fill:#473D3D;" d="M117.805,40.912c-7.646-13.386-21.943-16.659-35.4-16.659c-19.606,0-56,11-56,53
		c0,18.225,56.394-20,76-20c0,12.979,28.05,23.37,29,19C135.755,56.246,127.483,43.811,117.805,40.912z"/>
</g>
<g id="flonthair07" style="display:none;">
	<path style="display:inline;fill:#291508;" d="M135.514,69.47c0-25.957-25.072-46.999-55.999-46.999S23.516,43.513,23.516,69.47
		c0,4.507-0.152,6.587,0.053,7.031l-0.108,0.305c0,0,6.132-1.335,9.055-0.336l7.488-13.727c2.595,4.611,7.517,9.268,16.512,12.727
		c0,0-4.743-7.716-5.095-16.289c1.892,5.674,6.763,11.931,18.094,16.289c0,0-4.743-7.716-5.095-16.289
		c1.892,5.674,6.763,11.931,18.094,16.289c0,0-4.743-7.716-5.095-16.289c1.892,5.674,6.763,11.931,18.094,16.289
		c0,0-4.743-7.716-5.095-16.289c1.892,5.674,6.763,11.931,18.094,16.289c0,0-4.743-7.716-5.095-16.289
		c1.892,5.674,6.763,11.931,18.094,16.289c0,0-4.343-7.067-5.026-15.188l11.025,16.188c2.923-1,8,0,8,0l-0.155-0.334
		C135.631,75.794,135.514,73.837,135.514,69.47z"/>
</g>
<g id="flonthair06" style="display:none;">
	<path style="display:inline;fill:#291508;" d="M135.514,69.47c0-25.957-25.072-46.999-55.999-46.999S23.516,43.513,23.516,69.47
		c0,4.507-0.152,6.587,0.053,7.031l-0.108,0.305c0,0,6.132-1.335,9.055-0.336l7.488-13.727c2.595,4.611,7.517,9.268,16.512,12.727
		c0,0-4.743-7.716-5.095-16.289c1.892,5.674,6.763,11.931,18.094,16.289c0,0-4.743-7.716-5.095-16.289
		c1.892,5.674,6.763,11.931,18.094,16.289c0,0-4.743-7.716-5.095-16.289c1.892,5.674,6.763,11.931,18.094,16.289
		c0,0-4.743-7.716-5.095-16.289c1.892,5.674,6.763,11.931,18.094,16.289c0,0-4.743-7.716-5.095-16.289
		c1.892,5.674,6.763,11.931,18.094,16.289c0,0-4.343-7.067-5.026-15.188l11.025,16.188c2.923-1,8,0,8,0l-0.155-0.334
		C135.631,75.794,135.514,73.837,135.514,69.47z"/>
</g>
<g id="flonthair05" style="display:none;">
	<path style="display:inline;fill:#291508;" d="M135.514,69.47c0-25.957-25.072-46.999-55.999-46.999S23.516,43.513,23.516,69.47
		c0,4.507-0.152,6.587,0.053,7.031l-0.108,0.305c0,0,6.132-1.335,9.055-0.336l7.488-13.727c2.595,4.611,7.517,9.268,16.512,12.727
		c0,0-4.743-7.716-5.095-16.289c1.892,5.674,6.763,11.931,18.094,16.289c0,0-4.743-7.716-5.095-16.289
		c1.892,5.674,6.763,11.931,18.094,16.289c0,0-4.743-7.716-5.095-16.289c1.892,5.674,6.763,11.931,18.094,16.289
		c0,0-4.743-7.716-5.095-16.289c1.892,5.674,6.763,11.931,18.094,16.289c0,0-4.743-7.716-5.095-16.289
		c1.892,5.674,6.763,11.931,18.094,16.289c0,0-4.343-7.067-5.026-15.188l11.025,16.188c2.923-1,8,0,8,0l-0.155-0.334
		C135.631,75.794,135.514,73.837,135.514,69.47z"/>
</g>
<g id="flonthair04" style="display:none;">
	<path style="display:inline;fill:#291508;" d="M135.514,68.585c0-25.957-25.072-46.999-55.999-46.999S23.516,42.628,23.516,68.585
		c0,4.507-0.152,6.587,0.053,7.031l-0.108,0.305c0,0,6.132-1.335,9.055-0.336l7.488-13.727c2.595,4.611,11.769,5.011,11.417-3.562
		c1.892,5.674,13.351,8.572,13,0c1.892,5.674,13.351,8.572,13,0c1.892,5.674,13.351,8.572,13,0c1.892,5.674,13.351,8.572,13,0
		c1.892,5.674,13.751,9.222,13.069,1.101l11.025,16.188c2.923-1,8,0,8,0l-0.155-0.334C135.631,74.91,135.514,72.953,135.514,68.585z
		"/>
</g>
<g id="flonthair03_00000118383683413555200870000012952726056170207124_" style="display:none;">
	<path id="flonthair03_00000143581818346378229610000001122929704213744529_" style="display:inline;fill:#291508;" d="
		M132.797,69.978c-2.108-21.778-19.163-38.86-40.442-41.327c1.557-2.557,2.471-5.549,2.471-8.762C94.826,10.561,87.265,3,77.937,3
		s-16.889,7.561-16.889,16.889c0,3.269,0.944,6.311,2.552,8.896C43.846,31.6,28.189,47.415,25.115,67.398L25,76l5,6l47.374-25.519
		L130,82l4-6L132.797,69.978z"/>
</g>
<g id="flonthair02_00000009589190276472859330000010996739654709266308_" style="display:none;">
	<path id="flonthair01_00000075879480832412916150000018324323493701465223_" style="display:inline;fill:#482A2A;" d="M136.699,75
		c-3.551,23.439-23-27-32.113-22.087c-29.169,15.724-82.887,48.579-82.887,18.518S48.562,17,81.699,17S141.699,42,136.699,75z"/>
</g>
<g id="flonthair01" style="display:none;">
	<path id="flonthair02_00000058582979746611534590000003360694452623649953_" style="display:inline;fill:#291508;" d="M135.486,62
		c3,155-23.072-13-54-13s-61,152-58,13c0.536-24.847,25.072-45,56-45S135.005,37.152,135.486,62z"/>
</g>
<g id="&#x30EC;&#x30A4;&#x30E4;&#x30FC;_31" style="display:none;">
	<g id="&#x30EC;&#x30A4;&#x30E4;&#x30FC;_25" style="display:inline;">
		<g id="&#x30ED;&#x30B4;">
			<g>
				<path style="fill:#E74426;" d="M-173.102-176.236c0.009-0.05,0.019-0.091,0.027-0.144c1.088-7.181-4.757-12.62-11.968-12.62
					c-7.21,0-13.056,5.303-13.056,11.844c0,0.57,0.094,1.03,0.26,1.404c-0.945,0.647-1.566,1.732-1.566,2.963
					c0,1.983,1.607,3.59,3.59,3.59c0.167,0,0.326-0.027,0.487-0.049c1.225,2.726,3.679,4.669,6.71,5.489h-1.213
					c-0.577,0-1.108,0.165-1.541,0.435h-0.137c-1.717,0-3.108,1.392-3.108,3.108v2.549v0.87v5.005c0,0.02,0.002,0.039,0.003,0.059
					c-0.659,0.475-1.091,1.247-1.091,2.117v0.435c0,1.436,1.175,2.611,2.611,2.611h0.435c0.167,0,0.329-0.019,0.487-0.049
					c-0.03,0.158-0.052,0.318-0.052,0.485v11.532h0.476c-0.683,0.562-1.129,1.403-1.129,2.351v0.549
					c0,0.918,0.751,1.669,1.669,1.669h4.136c0.918,0,1.669-0.751,1.669-1.669v-0.549c0-0.948-0.446-1.789-1.129-2.351h0.401v-9.574
					h1.741v9.574h0.233c-0.588,0.558-0.961,1.342-0.961,2.212v0.549c0,0.918,0.751,1.669,1.669,1.669h4.136
					c0.918,0,1.669-0.751,1.669-1.669v-0.549c0-0.87-0.372-1.654-0.961-2.212h0.308v-11.532c0-0.083-0.018-0.161-0.026-0.242
					c0.081,0.008,0.16,0.025,0.243,0.025h0.435c1.436,0,2.611-1.175,2.611-2.611v-0.435c0-0.87-0.432-1.641-1.091-2.117
					c0.001-0.02,0.003-0.039,0.003-0.059v-5.222v-0.653v-2.767c0-1.717-1.392-3.108-3.108-3.108h-0.355
					c-0.434-0.27-0.964-0.435-1.541-0.435h-0.85c3.087-0.835,5.569-2.839,6.77-5.646c0.363,0.124,0.746,0.206,1.152,0.206
					c1.983,0,3.59-1.607,3.59-3.59C-170.464-174.44-171.584-175.817-173.102-176.236z"/>
				<path style="fill:#E74426;" d="M-207.049-129.945h-14.983v-28.482c0-1.46-0.283-2.52-0.848-3.18
					c-0.565-0.659-1.32-0.99-2.262-0.99h-1.837c-1.272,0-2.203,0.283-2.792,0.848c-0.589,0.565-0.883,1.673-0.883,3.322v28.482
					h-13.852v-28.482c0-1.225-0.283-2.226-0.848-3.003c-0.565-0.778-1.296-1.167-2.191-1.167h-2.262
					c-2.215,0-3.322,1.391-3.322,4.17v28.482h-14.983v-47.706h14.983v1.908c2.073-1.272,4.075-1.908,6.007-1.908h3.11
					c1.884,0,3.58,0.225,5.088,0.671c1.507,0.449,2.85,1.261,4.029,2.438c2.073-2.073,4.852-3.11,8.339-3.11h5.442
					c4.617,0,8.009,0.966,10.177,2.898c2.591,2.309,3.887,6.219,3.887,11.732V-129.945z"/>
				<path style="fill:#E74426;" d="M-117.364-129.945h-15.054v-26.22c0-1.932-0.542-3.486-1.625-4.665
					c-1.084-1.177-2.427-1.767-4.028-1.767h-3.746c-2.026,0-3.582,0.542-4.665,1.625c-1.32,1.367-1.979,3.44-1.979,6.22v24.807
					h-14.842v-47.706h14.842v2.615c2.638-1.743,5.442-2.615,8.41-2.615h5.795c5.182,0,9.293,1.461,12.333,4.382
					c3.039,2.922,4.559,7.256,4.559,13.004V-129.945z"/>
				<path style="fill:#E74426;" d="M-16.583-129.945h-13.922v-40.779l-9.047,40.779h-11.025l-9.046-41.274v41.274h-13.994v-58.448
					h21.838l6.715,33.5l6.855-33.5h21.625V-129.945z"/>
				<path style="fill:#E74426;" d="M38.827-146.413c0,5.419-1.438,9.518-4.312,12.297c-3.347,3.156-8.622,4.735-15.831,4.735H9.921
					c-6.361,0-11.237-1.827-14.63-5.478c-3.392-3.651-5.089-8.681-5.089-15.089v-7.492c0-6.266,1.768-11.308,5.301-15.124
					c3.534-3.816,8.34-5.725,14.418-5.725h9.329c6.36,0,11.213,1.661,14.559,4.982c3.345,3.322,5.019,8.329,5.019,15.019v8.976
					H5.114v0.424c0,1.933,0.447,3.322,1.344,4.17c0.895,0.848,2.236,1.272,4.028,1.272h8.905c1.318,0,2.297-0.283,2.933-0.848
					s0.954-1.272,0.954-2.12H38.827z M23.915-159.841c0-1.414-0.414-2.555-1.237-3.428c-0.825-0.871-2.015-1.307-3.569-1.307h-9.047
					c-1.508,0-2.709,0.448-3.604,1.343c-0.896,0.896-1.344,2.026-1.344,3.392H23.915z"/>
				<path style="fill:#E74426;" d="M111.198-154.964c0,8.576-1.649,14.725-4.947,18.446c-3.957,4.382-11.025,6.573-21.202,6.573
					H61.868v-58.448h23.181c9.329,0,16.09,1.979,20.284,5.937c3.91,3.723,5.865,9.447,5.865,17.174V-154.964z M95.579-156.236v-7.35
					c0-3.251-0.777-5.606-2.332-7.067c-1.649-1.601-4.382-2.403-8.198-2.403h-7.703v27.492h7.703c4.052,0,6.82-0.813,8.304-2.438
					C94.837-149.628,95.579-152.373,95.579-156.236z"/>
				<path style="fill:#E74426;" d="M156.006-162.526h-9.188c-4.053,0-7.304,0.954-9.754,2.862s-3.675,4.229-3.675,6.961v22.757
					h-14.982v-47.706h14.982v5.018c2.025-1.555,4.299-2.779,6.82-3.675c2.52-0.895,5.053-1.343,7.598-1.343h8.198V-162.526z"/>
				<path style="fill:#E74426;" d="M207.881-146.413c0,5.419-1.438,9.518-4.312,12.297c-3.346,3.156-8.622,4.735-15.831,4.735
					h-8.764c-6.36,0-11.237-1.827-14.629-5.478c-3.393-3.651-5.089-8.681-5.089-15.089v-7.492c0-6.266,1.767-11.308,5.301-15.124
					c3.533-3.816,8.34-5.725,14.417-5.725h9.329c6.361,0,11.213,1.661,14.56,4.982c3.345,3.322,5.018,8.329,5.018,15.019v8.976
					h-33.712v0.424c0,1.933,0.447,3.322,1.343,4.17c0.895,0.848,2.237,1.272,4.028,1.272h8.905c1.318,0,2.297-0.283,2.933-0.848
					c0.637-0.565,0.954-1.272,0.954-2.12H207.881z M192.969-159.841c0-1.414-0.413-2.555-1.237-3.428
					c-0.824-0.871-2.014-1.307-3.568-1.307h-9.047c-1.509,0-2.71,0.448-3.604,1.343c-0.896,0.896-1.343,2.026-1.343,3.392H192.969z"
					/>
				<path style="fill:#E74426;" d="M261.522-144.716c0,4.523-1.391,8.152-4.17,10.884c-3.016,2.968-7.327,4.453-12.934,4.453
					h-15.478c-10.46,0-15.689-5.488-15.689-16.467h16.043c0,1.32,0.247,2.25,0.742,2.792c0.494,0.542,1.425,0.813,2.791,0.813h8.411
					c2.496,0,3.745-0.942,3.745-2.827v-0.848c0-0.707-0.342-1.237-1.024-1.59c-0.684-0.354-1.897-0.53-3.64-0.53h-10.248
					c-5.466,0-9.553-1.166-12.262-3.499c-2.71-2.332-4.064-5.735-4.064-10.212v-1.555c0-4.569,1.379-8.209,4.135-10.919
					c2.757-2.708,6.82-4.063,12.191-4.063h15.549c5.229,0,9.069,1.332,11.52,3.993c2.449,2.662,3.675,6.608,3.675,11.838h-16.113
					c0-0.848-0.295-1.52-0.884-2.014c-0.59-0.495-1.496-0.742-2.721-0.742h-6.926c-2.592,0-3.888,0.731-3.888,2.191v0.636
					c0,0.707,0.294,1.249,0.884,1.625c0.588,0.377,1.755,0.565,3.498,0.565h10.955c5.371,0,9.364,1.166,11.979,3.498
					c2.615,2.333,3.923,5.737,3.923,10.212V-144.716z"/>
				<path style="fill:#E74426;" d="M315.518-144.716c0,4.523-1.391,8.152-4.17,10.884c-3.016,2.968-7.327,4.453-12.934,4.453
					h-15.478c-10.46,0-15.689-5.488-15.689-16.467h16.043c0,1.32,0.247,2.25,0.742,2.792c0.494,0.542,1.425,0.813,2.791,0.813h8.411
					c2.496,0,3.745-0.942,3.745-2.827v-0.848c0-0.707-0.342-1.237-1.024-1.59c-0.684-0.354-1.897-0.53-3.64-0.53h-10.248
					c-5.466,0-9.553-1.166-12.262-3.499c-2.71-2.332-4.064-5.735-4.064-10.212v-1.555c0-4.569,1.379-8.209,4.135-10.919
					c2.757-2.708,6.82-4.063,12.191-4.063h15.549c5.229,0,9.069,1.332,11.52,3.993c2.449,2.662,3.675,6.608,3.675,11.838h-16.113
					c0-0.848-0.295-1.52-0.884-2.014c-0.59-0.495-1.496-0.742-2.721-0.742h-6.926c-2.592,0-3.888,0.731-3.888,2.191v0.636
					c0,0.707,0.294,1.249,0.884,1.625c0.588,0.377,1.755,0.565,3.498,0.565h10.955c5.371,0,9.364,1.166,11.979,3.498
					c2.615,2.333,3.923,5.737,3.923,10.212V-144.716z"/>
				<path style="fill:#E74426;" d="M372.693-153.409c0,7.963-1.438,13.758-4.312,17.386c-3.487,4.428-9.518,6.644-18.093,6.644
					h-5.371c-8.48,0-14.442-2.215-17.881-6.644c-2.874-3.675-4.311-9.47-4.311-17.386v-34.984h15.689v34.63
					c0,2.968,0.541,5.113,1.625,6.431c1.084,1.32,3.086,1.979,6.008,1.979h3.181c3.015,0,5.111-0.707,6.29-2.12
					c0.989-1.272,1.483-3.368,1.483-6.29v-34.63h15.69V-153.409z"/>
				<path style="fill:#E74426;" d="M427.112-149.027c0,6.219-1.532,10.955-4.594,14.206c-3.063,3.251-7.587,4.876-13.569,4.876
					h-4.595c-2.78,0-5.441-0.777-7.985-2.333v10.955h-15.054v-56.328h15.054v2.05c2.59-1.414,5.253-2.12,7.985-2.12h4.595
					c5.747,0,10.212,1.708,13.393,5.124c3.18,3.417,4.771,8.14,4.771,14.17V-149.027z M412.2-151.289v-4.806
					c0-2.025-0.401-3.604-1.202-4.735c-0.989-1.272-2.498-1.908-4.522-1.908h-4.312c-2.026,0-3.522,0.554-4.488,1.661
					c-0.966,1.108-1.448,2.533-1.448,4.276v6.078c0,1.933,0.518,3.392,1.555,4.382c1.036,0.989,2.497,1.484,4.382,1.484h4.312
					c1.837,0,3.251-0.576,4.24-1.731C411.705-147.743,412.2-149.31,412.2-151.289z"/>
				<path style="fill:#E74426;" d="M-83.998-173.537c0.007-0.043,0.015-0.084,0.022-0.13c0.825-5.446-2.43-9.865-7.221-11.574
					c0.033-0.224,0.051-0.454,0.051-0.688c0-2.585-2.095-4.68-4.68-4.68s-4.68,2.095-4.68,4.68c0,0.26,0.022,0.514,0.063,0.762
					c-4.687,1.714-7.996,5.875-7.996,10.74c0,0.556,0.088,1.009,0.25,1.374c-0.922,0.633-1.527,1.693-1.527,2.895
					c0,1.938,1.571,3.51,3.51,3.51c0.163,0,0.323-0.015,0.48-0.037c1.198,2.658,3.592,4.554,6.548,5.355h-1.179
					c-0.532,0-1.026,0.158-1.436,0.425h-0.205c-1.678,0-3.039,1.361-3.039,3.039v2.492v0.851v4.893c0,0.02,0.002,0.039,0.003,0.058
					c-0.644,0.465-1.067,1.219-1.067,2.069v0.425c0,1.028,0.617,1.918,1.499,2.321l-0.648,6.264h2.553v6.129
					c-0.398,0.508-0.638,1.145-0.638,1.837v0.537c0,0.897,0.734,1.632,1.632,1.632h4.043c0.897,0,1.632-0.734,1.632-1.632v-0.537
					c0-0.734-0.269-1.407-0.712-1.929v-6.037h1.702v5.901c-0.443,0.522-0.712,1.195-0.712,1.929v0.537
					c0,0.897,0.734,1.632,1.632,1.632h4.043c0.897,0,1.632-0.734,1.632-1.632v-0.537c0-0.692-0.24-1.329-0.638-1.837v-5.993h2.127
					l-0.618-5.977c0.978-0.358,1.682-1.297,1.682-2.396v-0.425c0-0.85-0.423-1.605-1.067-2.069c0.001-0.019,0.003-0.038,0.003-0.058
					v-5.105v-0.638v-2.705c0-1.678-1.361-3.039-3.039-3.039h-0.417c-0.41-0.268-0.905-0.425-1.436-0.425h-0.824
					c3.012-0.816,5.436-2.77,6.612-5.506c0.354,0.12,0.732,0.188,1.126,0.188c1.938,0,3.51-1.571,3.51-3.51
					C-81.423-171.771-82.514-173.128-83.998-173.537z"/>
			</g>
		</g>
	</g>
</g>
</svg>
