<?xml version="1.0" encoding="iso-8859-1"?>
<!-- Generator: Adobe Illustrator 26.1.0, SVG Export Plug-In . SVG Version: 6.00 Build 0)  -->
<svg version="1.1" xmlns="http://www.w3.org/2000/svg" xmlns:xlink="http://www.w3.org/1999/xlink" x="0px" y="0px"
	 viewBox="0 0 159 299" style="enable-background:new 0 0 159 299;" xml:space="preserve">
<g id="backhair01_00000133519793573206338370000009076586093848075162_" style="display:none;">
	<path id="backhair01" style="display:inline;fill:#1E0B0B;" d="M122.003,180H35.999c-7.149,0-12.998-5.849-12.998-12.998V77.668
		C23.001,52.001,44.002,31,69.669,31h18.663c25.668,0,46.668,21.001,46.668,46.668v89.334C135.001,174.151,129.152,180,122.003,180z
		"/>
</g>
<g id="backhair02_00000091705160274194945010000007350443674258547124_" style="display:none;">
	<path id="backhair02_00000161633721270363427530000007106787311704165780_" style="display:inline;fill:#6B0000;" d="M122.003,180
		H35.999c-7.149,0-12.998-5.849-12.998-12.998V77.668C23.001,52.001,44.002,31,69.669,31h18.663
		c25.668,0,46.668,21.001,46.668,46.668v89.334C135.001,174.151,129.152,180,122.003,180z"/>
</g>
<g id="lowerbody03_00000080906133274041294380000001331612944419812515_" style="display:none;">
	<g id="lowerbody03" style="display:inline;">
		<path style="fill:#FAD6B6;" d="M111.082,190.311c0-8.421-6.382-15.311-14.182-15.311H61.264c-7.8,0-14.182,6.89-14.182,15.311
			v16.879c0,0.994,0.096,1.964,0.265,2.907c-0.172,0.868-0.265,1.767-0.265,2.688V270h28v-47.5h8V270h28v-57.216
			c0-0.921-0.094-1.82-0.265-2.688c0.17-0.942,0.265-1.913,0.265-2.907V190.311z"/>
		<path style="fill:#64CC64;" d="M111.082,190.311c0-8.421-6.382-15.311-14.182-15.311H61.264c-7.8,0-14.182,6.89-14.182,15.311
			v16.879c0,0.994,0.096,1.964,0.265,2.907c-0.172,0.868-0.265,1.767-0.265,2.688V232h28v-9.5h8v9.5h28v-19.216
			c0-0.921-0.094-1.82-0.265-2.688c0.17-0.942,0.265-1.913,0.265-2.907V190.311z"/>
		<path style="fill:#7C15E8;" d="M70.758,284H51.751c-4.218,0-7.67-3.451-7.67-7.67v-2.525c0-7.734,6.328-14.062,14.062-14.062
			h6.223c7.734,0,14.062,6.328,14.062,14.062v2.525C78.428,280.549,74.976,284,70.758,284z"/>
		<path style="fill:#7C15E8;" d="M106.412,283.361H87.405c-4.218,0-7.67-3.451-7.67-7.67v-2.525c0-7.734,6.328-14.062,14.062-14.062
			h6.223c7.734,0,14.062,6.328,14.062,14.062v2.525C114.082,279.909,110.63,283.361,106.412,283.361z"/>
	</g>
</g>
<g id="lowerbody02_00000113332071391788541320000005002513029909356194_" style="display:none;">
	<g id="lowerbody02_00000010270545122532536600000012435215430312152982_" style="display:inline;">
		<path style="fill:#FAD6B6;" d="M111.082,190.311c0-8.421-6.382-15.311-14.182-15.311H61.264c-7.8,0-14.182,6.89-14.182,15.311
			v16.879c0,0.994,0.096,1.964,0.265,2.907c-0.172,0.868-0.265,1.767-0.265,2.688V270h28v-47.5h8V270h28v-57.216
			c0-0.921-0.094-1.82-0.265-2.688c0.17-0.942,0.265-1.913,0.265-2.907V190.311z"/>
		<path style="fill:#DD3812;" d="M70.758,284H51.751c-4.218,0-7.67-3.451-7.67-7.67v-2.525c0-7.734,6.328-14.062,14.062-14.062
			h6.223c7.734,0,14.062,6.328,14.062,14.062v2.525C78.428,280.549,74.976,284,70.758,284z"/>
		<path style="fill:#DD3812;" d="M106.412,283.361H87.405c-4.218,0-7.67-3.451-7.67-7.67v-2.525c0-7.734,6.328-14.062,14.062-14.062
			h6.223c7.734,0,14.062,6.328,14.062,14.062v2.525C114.082,279.909,110.63,283.361,106.412,283.361z"/>
	</g>
</g>
<g id="lowerbody01_00000158715234407573086630000000875455128698761392_" style="display:none;">
	<g id="lowerbody01" style="display:inline;">
		<path style="fill:#0E2E48;" d="M111.082,189.182c0-7.8-6.382-14.182-14.182-14.182H61.264c-7.8,0-14.182,6.382-14.182,14.182
			v15.635c0,0.921,0.096,1.82,0.265,2.693c-0.172,0.804-0.265,1.636-0.265,2.49v53h28v-44h8v44h28v-53
			c0-0.854-0.094-1.686-0.265-2.49c0.17-0.873,0.265-1.772,0.265-2.693V189.182z"/>
		<path style="fill:#E8E8E8;" d="M70.758,284H51.751c-4.218,0-7.67-3.451-7.67-7.67v-2.525c0-7.734,6.328-14.062,14.062-14.062
			h6.223c7.734,0,14.062,6.328,14.062,14.062v2.525C78.428,280.549,74.976,284,70.758,284z"/>
		<path style="fill:#E8E8E8;" d="M106.412,283.361H87.405c-4.218,0-7.67-3.451-7.67-7.67v-2.525c0-7.734,6.328-14.062,14.062-14.062
			h6.223c7.734,0,14.062,6.328,14.062,14.062v2.525C114.082,279.909,110.63,283.361,106.412,283.361z"/>
	</g>
</g>
<g id="upperbody03_00000016773273868081477920000010947903278798228129_" style="display:none;">
	<g id="upperbody03_00000038393020434469123790000007587230781923820161_" style="display:inline;">
		<g id="arm01_00000148659737085755929110000016231649719896360883_">
			<path style="fill:#FAD6B6;" d="M132.787,182.584c-0.025-0.088-0.042-0.177-0.069-0.264l-8.174-25.733
				c-1.332-4.194-5.853-6.535-10.046-5.203s-6.535,5.853-5.203,10.046l8.174,25.733c0.028,0.088,0.065,0.17,0.096,0.256
				c-2.224,2.998-3.044,6.98-1.834,10.788l0.605,1.906c1.998,6.29,8.779,9.802,15.07,7.804l1.906-0.605
				c6.29-1.998,9.802-8.779,7.804-15.07l-0.605-1.906C139.301,186.528,136.334,183.75,132.787,182.584z"/>
			<path id="arm01_00000127757109958570027530000015884919799793769645_" style="fill:#FAD6B6;" d="M40.948,186.663
				c0.034-0.085,0.075-0.165,0.107-0.252l9.268-25.36c1.51-4.133-0.635-8.75-4.768-10.26c-4.133-1.51-8.75,0.635-10.26,4.768
				l-9.268,25.36c-0.032,0.087-0.052,0.174-0.081,0.261c-3.593,1.012-6.676,3.662-8.048,7.415l-0.686,1.878
				c-2.265,6.199,0.953,13.124,7.152,15.39l1.878,0.686c6.199,2.265,13.124-0.953,15.39-7.152l0.686-1.878
				C43.69,193.767,43.041,189.754,40.948,186.663z"/>
		</g>
		<path style="fill:#FFFFFF;" d="M107.143,131h-1.962c-1.927-1.259-4.253-2-6.752-2h-40c-2.499,0-4.825,0.741-6.752,2h-0.962
			c-7.89,0-20.286,30-20.286,30h12.795l4.205,39h64l2.205-39h13.795C127.428,161,115.033,131,107.143,131z"/>
		<path style="fill:#FAD6B6;" d="M79.428,140L79.428,140c-4.4,0-8-3.6-8-8v-5c0-4.4,3.6-8,8-8h0c4.4,0,8,3.6,8,8v5
			C87.428,136.4,83.828,140,79.428,140z"/>
	</g>
</g>
<g id="upperbody02_00000178180472253448475780000010453071090977712033_" style="display:none;">
	<g id="upperbody02" style="display:inline;">
		<g id="arm02">
			<path style="fill:#FAD6B6;" d="M119.568,185.273c0.003-0.091,0.014-0.181,0.014-0.273l0-27c0-4.4-3.6-8-8-8s-8,3.6-8,8l0,27
				c0,0.092,0.011,0.182,0.014,0.273c-3.027,2.184-5.014,5.731-5.014,9.727v2c0,6.6,5.4,12,12,12h2c6.6,0,12-5.4,12-12v-2
				C124.581,191.004,122.595,187.457,119.568,185.273z"/>
			<path id="arm01_00000137130964915386111680000009558036053186643626_" style="fill:#FAD6B6;" d="M54.568,184.273
				c0.003-0.091,0.014-0.181,0.014-0.273l0-27c0-4.4-3.6-8-8-8s-8,3.6-8,8l0,27c0,0.092,0.011,0.182,0.014,0.273
				c-3.027,2.184-5.014,5.731-5.014,9.727v2c0,6.6,5.4,12,12,12h2c6.6,0,12-5.4,12-12v-2
				C59.582,190.004,57.595,186.457,54.568,184.273z"/>
		</g>
		<path style="fill:#F3F757;" d="M119.582,145.286c0-7.89-6.396-14.286-14.286-14.286h-1.962c-1.927-1.259-4.253-2-6.752-2h-40
			c-2.499,0-4.825,0.741-6.752,2h-0.962c-7.89,0-14.286,6.396-14.286,14.286V161h6.795l-7.795,93h86l-7.795-93h7.795V145.286z"/>
		<path style="fill:#FAD6B6;" d="M77.582,140L77.582,140c-4.4,0-8-3.6-8-8v-5c0-4.4,3.6-8,8-8h0c4.4,0,8,3.6,8,8v5
			C85.582,136.4,81.982,140,77.582,140z"/>
	</g>
</g>
<g id="upperbody01_00000023243934539975913800000002121918215218859947_" style="display:none;">
	<g id="arm01_00000163074193500000569930000013806329909342765483_" style="display:inline;">
		<path style="fill:#FAD6B6;" d="M132.787,182.584c-0.025-0.088-0.042-0.177-0.069-0.264l-8.174-25.733
			c-1.332-4.194-5.853-6.535-10.046-5.203s-6.535,5.853-5.203,10.046l8.174,25.733c0.028,0.088,0.065,0.17,0.096,0.256
			c-2.224,2.998-3.044,6.98-1.834,10.788l0.605,1.906c1.998,6.29,8.779,9.802,15.07,7.804l1.906-0.605
			c6.29-1.998,9.802-8.779,7.804-15.07l-0.605-1.906C139.301,186.528,136.334,183.75,132.787,182.584z"/>
		<path id="arm01_00000077303050968666030600000003160139666406506895_" style="fill:#FAD6B6;" d="M40.948,186.663
			c0.034-0.085,0.075-0.165,0.107-0.252l9.268-25.36c1.51-4.133-0.635-8.75-4.768-10.26c-4.133-1.51-8.75,0.635-10.26,4.768
			l-9.268,25.36c-0.032,0.087-0.052,0.174-0.081,0.261c-3.593,1.012-6.676,3.662-8.048,7.415l-0.686,1.878
			c-2.265,6.199,0.953,13.124,7.152,15.39l1.878,0.686c6.199,2.265,13.124-0.953,15.39-7.152l0.686-1.878
			C43.69,193.767,43.041,189.754,40.948,186.663z"/>
	</g>
	<g id="upperbody01_00000062152845570903230210000012727150058124856498_" style="display:inline;">
		<path style="fill:#3EB69D;" d="M60.082,161h-23v-15.714c0-7.89,6.396-14.286,14.286-14.286h8.714V161z"/>
		<path style="fill:#3EB69D;" d="M99.082,161h23v-15.714c0-7.89-6.396-14.286-14.286-14.286h-8.714V161z"/>
		<path style="fill:#3EB69D;" d="M122.082,211h-86l11-70.558c0-6.293,5.4-11.442,12-11.442h40c6.6,0,12,5.149,12,11.442L122.082,211
			z"/>
		<path style="fill:#FAD6B6;" d="M80.082,140L80.082,140c-4.4,0-8-3.6-8-8v-5c0-4.4,3.6-8,8-8h0c4.4,0,8,3.6,8,8v5
			C88.082,136.4,84.482,140,80.082,140z"/>
	</g>
</g>
<g id="ear01_00000095311245772317497780000006129049952885214622_" style="display:none;">
	<g id="ear01_00000069390929797868767430000012970044432734854582_" style="display:inline;">
		<circle style="fill:#FAD6B6;" cx="29.082" cy="87.5" r="16.5"/>
		<circle style="fill:#FAD6B6;" cx="129.081" cy="87.5" r="16.5"/>
		<circle style="fill:#F1B588;" cx="27.582" cy="87" r="9"/>
		<circle id="ear01" style="fill:#F1B588;" cx="127.582" cy="87" r="9"/>
	</g>
</g>
<g id="face01_00000072282113280908566730000007853014941719626155_" style="display:none;">
	<path id="face01_00000097498456221108129990000002056764626615859359_" style="display:inline;fill:#FAD6B6;" d="M129.081,85
		c0,27.614-22.386,46-50,46s-50-18.386-50-46s22.386-50,50-50S129.081,57.386,129.081,85z"/>
</g>
<g id="nose01_00000017500802426429038320000007996396924284214927_" style="display:none;">
	<rect id="nose01" x="75.582" y="85" style="display:inline;fill:#F1B588;" width="7" height="19"/>
</g>
<g id="nose02_00000133505251444732357130000002886404874291366839_" style="display:none;">
	
		<circle id="nose02_00000173863237634693893910000009840102999010209936_" style="display:inline;fill:#F1B588;" cx="79.082" cy="97.5" r="4.5"/>
</g>
<g id="mouth01_00000027571031880612866910000017246883789237389231_" style="display:none;">
	<path id="mouth01" style="display:inline;fill:#DF775A;" d="M88.582,116h-19c-1.381,0-2.5-1.119-2.5-2.5l0,0
		c0-1.381,1.119-2.5,2.5-2.5h19c1.381,0,2.5,1.119,2.5,2.5l0,0C91.082,114.881,89.962,116,88.582,116z"/>
</g>
<g id="mouth02" style="display:none;">
	<path style="display:inline;fill:#CE6363;" d="M92.082,113c0,7.18-5.82,13-13,13s-13-5.82-13-13S92.082,105.82,92.082,113z"/>
</g>
<g id="eyebrows01_00000150781887198110670220000003494559981411417986_" style="display:none;">
	<g id="eyebrows01" style="display:inline;">
		<path style="fill:#482A2A;" d="M66.582,80h-10c-1.375,0-2.5-1.125-2.5-2.5l0,0c0-1.375,1.125-2.5,2.5-2.5h10
			c1.375,0,2.5,1.125,2.5,2.5l0,0C69.082,78.875,67.957,80,66.582,80z"/>
		<path style="fill:#482A2A;" d="M101.582,80h-10c-1.375,0-2.5-1.125-2.5-2.5l0,0c0-1.375,1.125-2.5,2.5-2.5h10
			c1.375,0,2.5,1.125,2.5,2.5l0,0C104.082,78.875,102.957,80,101.582,80z"/>
	</g>
</g>
<g id="eyebrows02_00000057855620701457422460000015272110602656285082_" style="display:none;">
	<g id="eyebrows02_00000134928871293284489800000015319786568015949480_" style="display:inline;">
		<path style="fill:#482A2A;" d="M67.751,78.935l-11.818,2.084c-0.812,0.143-1.594-0.404-1.738-1.217l0,0
			c-0.143-0.812,0.404-1.594,1.217-1.738l11.818-2.084c0.812-0.143,1.594,0.404,1.738,1.217l0,0
			C69.111,78.01,68.564,78.792,67.751,78.935z"/>
		<path style="fill:#482A2A;" d="M102.23,81.019l-11.818-2.084c-0.812-0.143-1.36-0.925-1.217-1.738l0,0
			c0.143-0.812,0.925-1.36,1.738-1.217l11.818,2.084c0.812,0.143,1.36,0.925,1.217,1.738l0,0
			C103.824,80.615,103.042,81.162,102.23,81.019z"/>
	</g>
</g>
<g id="eyebrows03_00000055690336929398627190000017758204369883068823_" style="display:none;">
	<g id="eyebrows03" style="display:inline;">
		<path style="fill:#6B0000;" d="M90.412,78.065l11.818-2.084c0.812-0.143,1.594,0.404,1.738,1.217l0,0
			c0.143,0.812-0.404,1.594-1.217,1.738l-11.818,2.084c-0.812,0.143-1.594-0.404-1.738-1.217l0,0
			C89.052,78.99,89.599,78.208,90.412,78.065z"/>
		<path style="fill:#6B0000;" d="M55.933,75.981l11.818,2.084c0.812,0.143,1.36,0.925,1.217,1.738l0,0
			c-0.143,0.812-0.925,1.36-1.738,1.217l-11.818-2.084c-0.812-0.143-1.36-0.925-1.217-1.738l0,0
			C54.339,76.385,55.121,75.838,55.933,75.981z"/>
	</g>
</g>
<g id="eye01_00000108294186949487232580000006296520591964909498_" style="display:none;">
	<g id="eye01_00000152248481581396751020000006560304149901158328_" style="display:inline;">
		<ellipse style="fill:#291508;" cx="61.5" cy="95" rx="4.5" ry="9"/>
		<ellipse style="fill:#291508;" cx="96.5" cy="95" rx="4.5" ry="9"/>
	</g>
</g>
<g id="eye02_00000096774696657704013440000016091965490526829224_" style="display:none;">
	<g id="eye02" style="display:inline;">
		<ellipse style="fill:#291508;" cx="61.5" cy="95" rx="4.5" ry="9"/>
		<ellipse style="fill:#291508;" cx="96.5" cy="95" rx="4.5" ry="9"/>
		<path style="fill:#291508;" d="M59.626,93.388L59.626,93.388c-0.699,0.438-1.629,0.225-2.068-0.473l-2.657-4.235
			c-0.438-0.699-0.225-1.629,0.473-2.068l0,0c0.699-0.438,1.629-0.225,2.068,0.473l2.657,4.235
			C60.538,92.019,60.325,92.95,59.626,93.388z"/>
		<path style="fill:#291508;" d="M98.374,93.388L98.374,93.388c0.699,0.438,1.629,0.225,2.068-0.473l2.657-4.235
			c0.438-0.699,0.225-1.629-0.473-2.068l0,0c-0.699-0.438-1.629-0.225-2.068,0.473l-2.657,4.235
			C97.462,92.019,97.675,92.95,98.374,93.388z"/>
	</g>
</g>
<g id="eye03_00000005232393638870895290000002715225034148531843_" style="display:none;">
	<g id="eye03_00000078043846617254553790000014463422885557800345_" style="display:inline;">
		<path style="fill:#291508;" d="M66,95c0,4.971-2.015-2-4.5-2S57,99.971,57,95s2.015-9,4.5-9S66,90.029,66,95z"/>
	</g>
	<g id="eye03_00000159464561102573356950000017761065272095999679_" style="display:inline;">
		<path style="fill:#291508;" d="M100.708,95c0,4.971-2.015-2-4.5-2s-4.5,6.971-4.5,2s2.015-9,4.5-9S100.708,90.029,100.708,95z"/>
	</g>
</g>
<g id="flonthair03_00000118383683413555200870000012952726056170207124_" style="display:none;">
	<path id="flonthair03" style="display:inline;fill:#6B0000;" d="M127.306,66.987c-1.872-19.342-17.019-34.514-35.919-36.705
		c1.383-2.271,2.195-4.929,2.195-7.782c0-8.284-6.716-15-15-15s-15,6.716-15,15c0,2.903,0.839,5.605,2.267,7.901
		c-17.545,2.5-31.451,16.546-34.182,34.294L30.082,75l48-20l50,20L127.306,66.987z"/>
</g>
<g id="flonthair02_00000009589190276472859330000010996739654709266308_" style="display:none;">
	<path id="flonthair01_00000075879480832412916150000018324323493701465223_" style="display:inline;fill:#482A2A;" d="M136.281,71
		c-3.551,23.439-23-27-32.113-22.087C74.999,64.637,21.281,97.492,21.281,67.431S48.144,13,81.281,13S141.281,38,136.281,71z"/>
</g>
<g id="flonthair01" style="display:none;">
	<path id="flonthair02" style="display:inline;fill:#291508;" d="M135.067,58c3,155-23.072-13-54-13s-61,152-58,13
		c0.536-24.847,25.072-45,56-45S134.586,33.152,135.067,58z"/>
</g>
<g id="&#x30ED;&#x30B4;">
	<g>
		<path style="fill:#E74426;" d="M-173.102-176.236c0.009-0.05,0.019-0.091,0.027-0.144c1.088-7.181-4.757-12.62-11.968-12.62
			c-7.21,0-13.056,5.303-13.056,11.844c0,0.57,0.094,1.03,0.26,1.404c-0.945,0.647-1.566,1.732-1.566,2.963
			c0,1.983,1.607,3.59,3.59,3.59c0.167,0,0.326-0.027,0.487-0.049c1.225,2.726,3.679,4.669,6.71,5.489h-1.213
			c-0.577,0-1.108,0.165-1.541,0.435h-0.137c-1.717,0-3.108,1.392-3.108,3.108v2.549v0.87v5.005c0,0.02,0.002,0.039,0.003,0.059
			c-0.659,0.475-1.091,1.247-1.091,2.117v0.435c0,1.436,1.175,2.611,2.611,2.611h0.435c0.167,0,0.329-0.019,0.487-0.049
			c-0.03,0.158-0.052,0.318-0.052,0.485v11.532h0.476c-0.683,0.562-1.129,1.403-1.129,2.351v0.549c0,0.918,0.751,1.669,1.669,1.669
			h4.136c0.918,0,1.669-0.751,1.669-1.669v-0.549c0-0.948-0.446-1.789-1.129-2.351h0.401v-9.574h1.741v9.574h0.233
			c-0.588,0.558-0.961,1.342-0.961,2.212v0.549c0,0.918,0.751,1.669,1.669,1.669h4.136c0.918,0,1.669-0.751,1.669-1.669v-0.549
			c0-0.87-0.372-1.654-0.961-2.212h0.308v-11.532c0-0.083-0.018-0.161-0.026-0.242c0.081,0.008,0.16,0.025,0.243,0.025h0.435
			c1.436,0,2.611-1.175,2.611-2.611v-0.435c0-0.87-0.432-1.641-1.091-2.117c0.001-0.02,0.003-0.039,0.003-0.059v-5.222v-0.653
			v-2.767c0-1.717-1.392-3.108-3.108-3.108h-0.355c-0.434-0.27-0.964-0.435-1.541-0.435h-0.85c3.087-0.835,5.569-2.839,6.77-5.646
			c0.363,0.124,0.746,0.206,1.152,0.206c1.983,0,3.59-1.607,3.59-3.59C-170.464-174.44-171.584-175.817-173.102-176.236z"/>
		<path style="fill:#E74426;" d="M-207.049-129.945h-14.983v-28.482c0-1.46-0.283-2.52-0.848-3.18
			c-0.565-0.659-1.32-0.99-2.262-0.99h-1.837c-1.272,0-2.203,0.283-2.792,0.848c-0.589,0.565-0.883,1.673-0.883,3.322v28.482
			h-13.852v-28.482c0-1.225-0.283-2.226-0.848-3.003c-0.565-0.778-1.296-1.167-2.191-1.167h-2.262c-2.215,0-3.322,1.391-3.322,4.17
			v28.482h-14.983v-47.706h14.983v1.908c2.073-1.272,4.075-1.908,6.007-1.908h3.11c1.884,0,3.58,0.225,5.088,0.671
			c1.507,0.449,2.85,1.261,4.029,2.438c2.073-2.073,4.852-3.11,8.339-3.11h5.442c4.617,0,8.009,0.966,10.177,2.898
			c2.591,2.309,3.887,6.219,3.887,11.732V-129.945z"/>
		<path style="fill:#E74426;" d="M-117.364-129.945h-15.054v-26.22c0-1.932-0.542-3.486-1.625-4.665
			c-1.084-1.177-2.427-1.767-4.028-1.767h-3.746c-2.026,0-3.582,0.542-4.665,1.625c-1.32,1.367-1.979,3.44-1.979,6.22v24.807
			h-14.842v-47.706h14.842v2.615c2.638-1.743,5.442-2.615,8.41-2.615h5.795c5.182,0,9.293,1.461,12.333,4.382
			c3.039,2.922,4.559,7.256,4.559,13.004V-129.945z"/>
		<path style="fill:#E74426;" d="M-16.583-129.945h-13.922v-40.779l-9.047,40.779h-11.025l-9.046-41.274v41.274h-13.994v-58.448
			h21.838l6.715,33.5l6.855-33.5h21.625V-129.945z"/>
		<path style="fill:#E74426;" d="M38.827-146.413c0,5.419-1.438,9.518-4.312,12.297c-3.347,3.156-8.622,4.735-15.831,4.735H9.921
			c-6.361,0-11.237-1.827-14.63-5.478c-3.392-3.651-5.089-8.681-5.089-15.089v-7.492c0-6.266,1.768-11.308,5.301-15.124
			c3.534-3.816,8.34-5.725,14.418-5.725h9.329c6.36,0,11.213,1.661,14.559,4.982c3.345,3.322,5.019,8.329,5.019,15.019v8.976H5.114
			v0.424c0,1.933,0.447,3.322,1.344,4.17c0.895,0.848,2.236,1.272,4.028,1.272h8.905c1.318,0,2.297-0.283,2.933-0.848
			s0.954-1.272,0.954-2.12H38.827z M23.915-159.841c0-1.414-0.414-2.555-1.237-3.428c-0.825-0.871-2.015-1.307-3.569-1.307h-9.047
			c-1.508,0-2.709,0.448-3.604,1.343c-0.896,0.896-1.344,2.026-1.344,3.392H23.915z"/>
		<path style="fill:#E74426;" d="M111.198-154.964c0,8.576-1.649,14.725-4.947,18.446c-3.957,4.382-11.025,6.573-21.202,6.573
			H61.868v-58.448h23.181c9.329,0,16.09,1.979,20.284,5.937c3.91,3.723,5.865,9.447,5.865,17.174V-154.964z M95.579-156.236v-7.35
			c0-3.251-0.777-5.606-2.332-7.067c-1.649-1.601-4.382-2.403-8.198-2.403h-7.703v27.492h7.703c4.052,0,6.82-0.813,8.304-2.438
			C94.837-149.628,95.579-152.373,95.579-156.236z"/>
		<path style="fill:#E74426;" d="M156.006-162.526h-9.188c-4.053,0-7.304,0.954-9.754,2.862s-3.675,4.229-3.675,6.961v22.757
			h-14.982v-47.706h14.982v5.018c2.025-1.555,4.299-2.779,6.82-3.675c2.52-0.895,5.053-1.343,7.598-1.343h8.198V-162.526z"/>
		<path style="fill:#E74426;" d="M207.881-146.413c0,5.419-1.438,9.518-4.312,12.297c-3.346,3.156-8.622,4.735-15.831,4.735h-8.764
			c-6.36,0-11.237-1.827-14.629-5.478c-3.393-3.651-5.089-8.681-5.089-15.089v-7.492c0-6.266,1.767-11.308,5.301-15.124
			c3.533-3.816,8.34-5.725,14.417-5.725h9.329c6.361,0,11.213,1.661,14.56,4.982c3.345,3.322,5.018,8.329,5.018,15.019v8.976
			h-33.712v0.424c0,1.933,0.447,3.322,1.343,4.17c0.895,0.848,2.237,1.272,4.028,1.272h8.905c1.318,0,2.297-0.283,2.933-0.848
			c0.637-0.565,0.954-1.272,0.954-2.12H207.881z M192.969-159.841c0-1.414-0.413-2.555-1.237-3.428
			c-0.824-0.871-2.014-1.307-3.568-1.307h-9.047c-1.509,0-2.71,0.448-3.604,1.343c-0.896,0.896-1.343,2.026-1.343,3.392H192.969z"/>
		<path style="fill:#E74426;" d="M261.522-144.716c0,4.523-1.391,8.152-4.17,10.884c-3.016,2.968-7.327,4.453-12.934,4.453h-15.478
			c-10.46,0-15.689-5.488-15.689-16.467h16.043c0,1.32,0.247,2.25,0.742,2.792c0.494,0.542,1.425,0.813,2.791,0.813h8.411
			c2.496,0,3.745-0.942,3.745-2.827v-0.848c0-0.707-0.342-1.237-1.024-1.59c-0.684-0.354-1.897-0.53-3.64-0.53h-10.248
			c-5.466,0-9.553-1.166-12.262-3.499c-2.71-2.332-4.064-5.735-4.064-10.212v-1.555c0-4.569,1.379-8.209,4.135-10.919
			c2.757-2.708,6.82-4.063,12.191-4.063h15.549c5.229,0,9.069,1.332,11.52,3.993c2.449,2.662,3.675,6.608,3.675,11.838h-16.113
			c0-0.848-0.295-1.52-0.884-2.014c-0.59-0.495-1.496-0.742-2.721-0.742h-6.926c-2.592,0-3.888,0.731-3.888,2.191v0.636
			c0,0.707,0.294,1.249,0.884,1.625c0.588,0.377,1.755,0.565,3.498,0.565h10.955c5.371,0,9.364,1.166,11.979,3.498
			c2.615,2.333,3.923,5.737,3.923,10.212V-144.716z"/>
		<path style="fill:#E74426;" d="M315.518-144.716c0,4.523-1.391,8.152-4.17,10.884c-3.016,2.968-7.327,4.453-12.934,4.453h-15.478
			c-10.46,0-15.689-5.488-15.689-16.467h16.043c0,1.32,0.247,2.25,0.742,2.792c0.494,0.542,1.425,0.813,2.791,0.813h8.411
			c2.496,0,3.745-0.942,3.745-2.827v-0.848c0-0.707-0.342-1.237-1.024-1.59c-0.684-0.354-1.897-0.53-3.64-0.53h-10.248
			c-5.466,0-9.553-1.166-12.262-3.499c-2.71-2.332-4.064-5.735-4.064-10.212v-1.555c0-4.569,1.379-8.209,4.135-10.919
			c2.757-2.708,6.82-4.063,12.191-4.063h15.549c5.229,0,9.069,1.332,11.52,3.993c2.449,2.662,3.675,6.608,3.675,11.838h-16.113
			c0-0.848-0.295-1.52-0.884-2.014c-0.59-0.495-1.496-0.742-2.721-0.742h-6.926c-2.592,0-3.888,0.731-3.888,2.191v0.636
			c0,0.707,0.294,1.249,0.884,1.625c0.588,0.377,1.755,0.565,3.498,0.565h10.955c5.371,0,9.364,1.166,11.979,3.498
			c2.615,2.333,3.923,5.737,3.923,10.212V-144.716z"/>
		<path style="fill:#E74426;" d="M372.693-153.409c0,7.963-1.438,13.758-4.312,17.386c-3.487,4.428-9.518,6.644-18.093,6.644h-5.371
			c-8.48,0-14.442-2.215-17.881-6.644c-2.874-3.675-4.311-9.47-4.311-17.386v-34.984h15.689v34.63c0,2.968,0.541,5.113,1.625,6.431
			c1.084,1.32,3.086,1.979,6.008,1.979h3.181c3.015,0,5.111-0.707,6.29-2.12c0.989-1.272,1.483-3.368,1.483-6.29v-34.63h15.69
			V-153.409z"/>
		<path style="fill:#E74426;" d="M427.112-149.027c0,6.219-1.532,10.955-4.594,14.206c-3.063,3.251-7.587,4.876-13.569,4.876h-4.595
			c-2.78,0-5.441-0.777-7.985-2.333v10.955h-15.054v-56.328h15.054v2.05c2.59-1.414,5.253-2.12,7.985-2.12h4.595
			c5.747,0,10.212,1.708,13.393,5.124c3.18,3.417,4.771,8.14,4.771,14.17V-149.027z M412.2-151.289v-4.806
			c0-2.025-0.401-3.604-1.202-4.735c-0.989-1.272-2.498-1.908-4.522-1.908h-4.312c-2.026,0-3.522,0.554-4.488,1.661
			c-0.966,1.108-1.448,2.533-1.448,4.276v6.078c0,1.933,0.518,3.392,1.555,4.382c1.036,0.989,2.497,1.484,4.382,1.484h4.312
			c1.837,0,3.251-0.576,4.24-1.731C411.705-147.743,412.2-149.31,412.2-151.289z"/>
		<path style="fill:#E74426;" d="M-83.998-173.537c0.007-0.043,0.015-0.084,0.022-0.13c0.825-5.446-2.43-9.865-7.221-11.574
			c0.033-0.224,0.051-0.454,0.051-0.688c0-2.585-2.095-4.68-4.68-4.68s-4.68,2.095-4.68,4.68c0,0.26,0.022,0.514,0.063,0.762
			c-4.687,1.714-7.996,5.875-7.996,10.74c0,0.556,0.088,1.009,0.25,1.374c-0.922,0.633-1.527,1.693-1.527,2.895
			c0,1.938,1.571,3.51,3.51,3.51c0.163,0,0.323-0.015,0.48-0.037c1.198,2.658,3.592,4.554,6.548,5.355h-1.179
			c-0.532,0-1.026,0.158-1.436,0.425h-0.205c-1.678,0-3.039,1.361-3.039,3.039v2.492v0.851v4.893c0,0.02,0.002,0.039,0.003,0.058
			c-0.644,0.465-1.067,1.219-1.067,2.069v0.425c0,1.028,0.617,1.918,1.499,2.321l-0.648,6.264h2.553v6.129
			c-0.398,0.508-0.638,1.145-0.638,1.837v0.537c0,0.897,0.734,1.632,1.632,1.632h4.043c0.897,0,1.632-0.734,1.632-1.632v-0.537
			c0-0.734-0.269-1.407-0.712-1.929v-6.037h1.702v5.901c-0.443,0.522-0.712,1.195-0.712,1.929v0.537
			c0,0.897,0.734,1.632,1.632,1.632h4.043c0.897,0,1.632-0.734,1.632-1.632v-0.537c0-0.692-0.24-1.329-0.638-1.837v-5.993h2.127
			l-0.618-5.977c0.978-0.358,1.682-1.297,1.682-2.396v-0.425c0-0.85-0.423-1.605-1.067-2.069c0.001-0.019,0.003-0.038,0.003-0.058
			v-5.105v-0.638v-2.705c0-1.678-1.361-3.039-3.039-3.039h-0.417c-0.41-0.268-0.905-0.425-1.436-0.425h-0.824
			c3.012-0.816,5.436-2.77,6.612-5.506c0.354,0.12,0.732,0.188,1.126,0.188c1.938,0,3.51-1.571,3.51-3.51
			C-81.423-171.771-82.514-173.128-83.998-173.537z"/>
	</g>
</g>
</svg>
